<svg style="display: none;" xmlns="http://www.w3.org/2000/svg">

    <symbol 
    id="search-icon" 
    viewBox="0 0 19 19">
        <path d="M13.5 12H12.71L12.43 11.73C13.0549 11.0039 13.5117 10.1487 13.7675 9.22559C14.0234 8.30243 14.072 7.33413 13.91 6.38998C13.44 3.60998 11.12 1.38997 8.31997 1.04997C7.33559 0.925441 6.33576 1.02775 5.397 1.34906C4.45824 1.67038 3.60542 2.20219 2.90381 2.90381C2.20219 3.60542 1.67038 4.45824 1.34906 5.397C1.02775 6.33576 0.925441 7.33559 1.04997 8.31997C1.38997 11.12 3.60998 13.44 6.38998 13.91C7.33413 14.072 8.30243 14.0234 9.22559 13.7675C10.1487 13.5117 11.0039 13.0549 11.73 12.43L12 12.71V13.5L16.25 17.75C16.66 18.16 17.33 18.16 17.74 17.75C18.15 17.34 18.15 16.67 17.74 16.26L13.5 12ZM7.49997 12C5.00997 12 2.99997 9.98997 2.99997 7.49997C2.99997 5.00997 5.00997 2.99997 7.49997 2.99997C9.98997 2.99997 12 5.00997 12 7.49997C12 9.98997 9.98997 12 7.49997 12Z"/>
    </symbol>

    <symbol 
    id="search-icon_adaptive" 
    viewBox="0 0 24 21">
        <path d="M20.031 17.7901C20.491 18.2501 21.201 17.5401 20.741 17.0901L16.991 13.3301C18.3064 11.8746 19.0336 9.98189 19.031 8.02006C19.031 3.63006 15.461 0.0600586 11.071 0.0600586C6.681 0.0600586 3.111 3.63006 3.111 8.02006C3.111 12.4101 6.681 15.9801 11.071 15.9801C13.051 15.9801 14.881 15.2501 16.281 14.0401L20.031 17.7901ZM4.11 8.02006C4.11 4.18006 7.24 1.06006 11.07 1.06006C14.91 1.06006 18.03 4.18006 18.03 8.02006C18.03 11.8601 14.91 14.9801 11.07 14.9801C7.24 14.9801 4.11 11.8601 4.11 8.02006Z"/>
    </symbol>

    <symbol 
    id="star-rate" 
    viewBox="0 0 18 17">
        <path d="M8.03534 0.333169C8.17973 -0.111056 8.8557 -0.111056 9.00002 0.333169L10.9294 6.11917C10.9939 6.31783 11.6851 6.11917 11.8941 6.11917H17.6822C18.1494 6.11917 18.0602 6.80895 17.6822 7.0835L12.8588 9.9765C12.6897 10.0994 12.7942 10.7422 12.8588 10.9408L14.7881 16.7268C14.9325 17.171 14.2014 17.0014 13.8234 16.7268L9.00002 13.8338C8.83091 13.711 9.16907 13.711 9.00002 13.8338L4.1766 16.7268C3.79857 17.0014 3.06752 17.171 3.21191 16.7268L5.14128 10.9408C5.20586 10.7422 5.31034 10.0994 5.14128 9.9765L0.317856 7.0835C-0.0601617 6.80895 -0.1494 6.11917 0.317856 6.11917H6.10597C6.31493 6.11917 7.00609 6.31783 7.07065 6.11917L8.03534 0.333169Z"/>
    </symbol>

    <symbol 
    id="facebook-bg-icon" 
    viewBox="0 0 32 32">
        <path fill-rule="evenodd" clip-rule="evenodd" d="M0 16C0 7.16344 7.16344 0 16 0C24.8366 0 32 7.16344 32 16C32 24.8366 24.8366 32 16 32C7.16344 32 0 24.8366 0 16ZM16 8C20.4 8 24 11.6 24 16C24 20 21.1 23.4 17.1 24V18.3H19L19.4 16H17.2V14.5C17.2 13.9 17.5 13.3 18.5 13.3H19.5V11.3C19.5 11.3 18.6 11.1 17.7 11.1C15.9 11.1 14.7 12.2 14.7 14.2V16H12.7V18.3H14.7V23.9C10.9 23.3 8 20 8 16C8 11.6 11.6 8 16 8Z"/>
    </symbol>
    
    <symbol 
    id="twitter-bg-icon" 
    viewBox="0 0 32 32">
        <path fill-rule="evenodd" clip-rule="evenodd" d="M0 16C0 7.16344 7.16344 0 16 0C24.8366 0 32 7.16344 32 16C32 24.8366 24.8366 32 16 32C7.16344 32 0 24.8366 0 16ZM22.1 11.5C22.8 11.4 23.4 11.3 24 11C23.6 11.7 23 12.3 22.3 12.7C22.5 17.4 19.1 22.5 13 22.5C11.2 22.5 9.5 21.9 8 21C9.7 21.2 11.5 20.7 12.7 19.8C11.2 19.8 10 18.8 9.6 17.5C10.1 17.6 10.6 17.5 11.1 17.4C9.6 17 8.5 15.6 8.5 14.1C9 14.3 9.5 14.5 10 14.5C8.6 13.5 8.1 11.6 9 10.1C10.7 12.1 13.1 13.4 15.8 13.5C15.3 11.5 16.9 9.5 19 9.5C19.9 9.5 20.8 9.9 21.4 10.5C22.2 10.3 22.9 10.1 23.5 9.7C23.3 10.5 22.8 11.1 22.1 11.5Z"/>
    </symbol>

    <symbol 
    id="instagram-bg-icon" 
    viewBox="0 0 32 32">
        <path d="M16 18.8C14.5 18.8 13.2 17.6 13.2 16C13.2 14.5 14.4 13.2 16 13.2C17.5 13.2 18.8 14.4 18.8 16C18.8 17.5 17.5 18.8 16 18.8Z"/>
        <path fill-rule="evenodd" clip-rule="evenodd" d="M19.4 9.2H12.6C11.8 9.3 11.4 9.4 11.1 9.5C10.7 9.6 10.4 9.8 10.1 10.1C9.86261 10.3374 9.75045 10.5748 9.61489 10.8617C9.57916 10.9373 9.5417 11.0166 9.5 11.1C9.48453 11.1464 9.46667 11.1952 9.44752 11.2475C9.34291 11.5333 9.2 11.9238 9.2 12.6V19.4C9.3 20.2 9.4 20.6 9.5 20.9C9.6 21.3 9.8 21.6 10.1 21.9C10.3374 22.1374 10.5748 22.2495 10.8617 22.3851C10.9374 22.4209 11.0165 22.4583 11.1 22.5C11.1464 22.5155 11.1952 22.5333 11.2475 22.5525C11.5333 22.6571 11.9238 22.8 12.6 22.8H19.4C20.2 22.7 20.6 22.6 20.9 22.5C21.3 22.4 21.6 22.2 21.9 21.9C22.1374 21.6626 22.2495 21.4252 22.3851 21.1383C22.4209 21.0626 22.4583 20.9835 22.5 20.9C22.5155 20.8536 22.5333 20.8048 22.5525 20.7525C22.6571 20.4667 22.8 20.0762 22.8 19.4V12.6C22.7 11.8 22.6 11.4 22.5 11.1C22.4 10.7 22.2 10.4 21.9 10.1C21.6626 9.86261 21.4252 9.75045 21.1383 9.61488C21.0627 9.57918 20.9833 9.54167 20.9 9.5C20.8536 9.48453 20.8048 9.46666 20.7525 9.44752C20.4667 9.3429 20.0762 9.2 19.4 9.2ZM16 11.7C13.6 11.7 11.7 13.6 11.7 16C11.7 18.4 13.6 20.3 16 20.3C18.4 20.3 20.3 18.4 20.3 16C20.3 13.6 18.4 11.7 16 11.7ZM21.4 11.6C21.4 12.1523 20.9523 12.6 20.4 12.6C19.8477 12.6 19.4 12.1523 19.4 11.6C19.4 11.0477 19.8477 10.6 20.4 10.6C20.9523 10.6 21.4 11.0477 21.4 11.6Z"/>
        <path fill-rule="evenodd" clip-rule="evenodd" d="M0 16C0 7.16344 7.16344 0 16 0C24.8366 0 32 7.16344 32 16C32 24.8366 24.8366 32 16 32C7.16344 32 0 24.8366 0 16ZM12.6 7.7H19.4C20.3 7.8 20.9 7.9 21.4 8.1C22 8.4 22.4 8.6 22.9 9.1C23.4 9.6 23.7 10.1 23.9 10.6C24.1 11.1 24.3 11.7 24.3 12.6V19.4C24.2 20.3 24.1 20.9 23.9 21.4C23.6 22 23.4 22.4 22.9 22.9C22.4 23.4 21.9 23.7 21.4 23.9C20.9 24.1 20.3 24.3 19.4 24.3H12.6C11.7 24.2 11.1 24.1 10.6 23.9C10 23.6 9.6 23.4 9.1 22.9C8.6 22.4 8.3 21.9 8.1 21.4C7.9 20.9 7.7 20.3 7.7 19.4V12.6C7.8 11.7 7.9 11.1 8.1 10.6C8.4 10 8.6 9.6 9.1 9.1C9.6 8.6 10.1 8.3 10.6 8.1C11.1 7.9 11.7 7.7 12.6 7.7Z"/>
    </symbol>

    <symbol 
    id="youtube-bg-icon" 
    viewBox="0 0 32 32">
        <path d="M18.6 16L14.4 13.6V18.4L18.6 16Z"/>
        <path fill-rule="evenodd" clip-rule="evenodd" d="M0 16C0 7.16344 7.16344 0 16 0C24.8366 0 32 7.16344 32 16C32 24.8366 24.8366 32 16 32C7.16344 32 0 24.8366 0 16ZM22.2 10.7C22.9 10.9 23.4 11.4 23.6 12.1C24 13.4 24 16 24 16C24 16 24 18.6 23.7 19.9C23.5 20.6 23 21.1 22.3 21.3C21 21.6 16 21.6 16 21.6C16 21.6 10.9 21.6 9.7 21.3C9 21.1 8.5 20.6 8.3 19.9C8 18.6 8 16 8 16C8 16 8 13.4 8.2 12.1C8.4 11.4 8.90001 10.9 9.60001 10.7C10.9 10.4 15.9 10.4 15.9 10.4C15.9 10.4 21 10.4 22.2 10.7Z"/>
    </symbol>

    <symbol
    id="acc-arrow"
    viewBox="0 0 17 8">
        <path d="M15.7392 7.5L8.5 0.686625L1.26079 7.5L15.7392 7.5Z"/>
    </symbol>

</svg>