<svg display="none" xmlns="http://www.w3.org/2000/svg">
    
    <symbol id="estate-logo" viewBox="0 0 36 37">
        <path fill-rule="evenodd" clip-rule="evenodd" d="M20.8587 0L35.9353 15.3071V36.8048H32.4369V16.773L18.3825 2.50838L20.8587 0ZM10.968 10.0331L21.9354 21.1712V36.8049H0V21.1712L10.968 10.0331ZM15.9132 5.01652L28.939 18.2391V36.8045H25.4406V19.705L13.4439 7.5249L15.9132 5.01652Z"/>
    </symbol>

    <symbol id="arrow" viewBox="0 0 24 22">
        <path d="M10.9393 21.0607C11.5251 21.6464 12.4749 21.6464 13.0607 21.0607L22.6066 11.5147C23.1924 10.9289 23.1924 9.97919 22.6066 9.3934C22.0208 8.80761 21.0711 8.80761 20.4853 9.3934L12 17.8787L3.51472 9.3934C2.92893 8.80761 1.97918 8.80761 1.3934 9.3934C0.807611 9.97918 0.807611 10.9289 1.3934 11.5147L10.9393 21.0607ZM10.5 -6.55671e-08L10.5 20L13.5 20L13.5 6.55671e-08L10.5 -6.55671e-08Z"/>
    </symbol>

    <symbol id="stellar-locations-icon" viewBox="0 0 24 24">
        <path d="M3.7013 14.5813C4.05195 14.4236 4.44156 14.5813 4.5974 14.936C4.75325 15.2906 4.5974 15.6847 4.24675 15.8424C2.45455 16.6305 1.4026 17.6158 1.4026 18.5616C1.4026 20.4926 5.72727 22.6601 12 22.6601C18.2727 22.6601 22.6364 20.4926 22.5974 18.5616C22.5974 17.6158 21.5844 16.6305 19.8312 15.8818C19.4805 15.7241 19.3247 15.33 19.4805 14.9754C19.6364 14.6207 20.026 14.4631 20.3766 14.6207C22.7143 15.6453 24 17.0246 24 18.5616C24 21.6355 18.8571 24 12 24C5.14286 24 0 21.6749 0 18.5616C0 17.0246 1.32468 15.6059 3.7013 14.5813ZM12 0C16.3247 0 19.8312 3.5468 19.8312 7.92118C19.8312 11.1921 15.7403 16.3153 13.2857 19.0739C12.974 19.468 12.5065 19.665 12 19.665C11.4935 19.665 11.026 19.4286 10.7143 19.0739C8.25974 16.3153 4.16883 11.1921 4.16883 7.92118C4.16883 3.5468 7.67532 0 12 0ZM12 1.37931C8.45455 1.37931 5.53247 4.29557 5.53247 7.92118C5.53247 9.93103 7.87013 13.7537 11.7273 18.1281C11.8052 18.2463 11.961 18.2463 12 18.2463C12.039 18.2463 12.1558 18.2463 12.2727 18.1281C16.1688 13.7537 18.4675 9.93103 18.4675 7.92118C18.4675 4.29557 15.5455 1.37931 12 1.37931Z"/>
    </symbol>

    <symbol id="high-quality-builds-icon" viewBox="0 0 24 24">
        <path d="M23.8829 10.0301L23.922 9.9918C23.922 9.9918 23.922 9.95355 23.961 9.9153C23.961 9.87705 23.961 9.87705 24 9.8388V9.80055C24 9.7623 24 9.76229 24 9.72404V9.68579V9.64754C24 9.64754 24 9.64754 24 9.60929C23.1805 4.98087 18.0293 1.5 11.9805 1.5C5.93171 1.5 0.780488 4.98087 0 9.57104C0 9.57104 0 9.57104 0 9.60929V9.64754V9.68579C0 9.72404 0 9.72404 0 9.76229C0 9.80055 0 9.80055 0 9.8388C0 9.87705 0 9.87705 0.0390244 9.9153C0.0390244 9.95355 0.0390244 9.95355 0.0780488 9.9918C0.0780488 10.0301 0.117073 10.0301 0.117073 10.0683L0.156098 10.1066L0.195122 10.1448L0.234146 10.1831L0.273171 10.2213L0.312195 10.2596C0.312195 10.2596 0.35122 10.2978 0.390244 10.2978C0.390244 10.2978 0.429268 10.3361 0.468293 10.3361C0.468293 10.3361 0.507317 10.3361 0.546341 10.3361C0.585366 10.3361 0.585366 10.3361 0.62439 10.3361H0.663415H0.702439H3.12195V21.0847H2.49756C2.10732 21.0847 1.79512 21.3907 1.79512 21.7732C1.79512 22.1557 2.10732 22.4617 2.49756 22.4617H9.13171C9.52195 22.4617 9.83415 22.1557 9.83415 21.7732C9.83415 21.3907 9.52195 21.0847 9.13171 21.0847H8.54634V10.3743H15.4927V21.123H14.8293C14.439 21.123 14.1268 21.429 14.1268 21.8115C14.1268 22.194 14.439 22.5 14.8293 22.5H21.4634C21.8537 22.5 22.1659 22.194 22.1659 21.8115C22.1659 21.429 21.8537 21.123 21.4634 21.123H20.9561V10.3743H23.2976C23.3366 10.3743 23.3756 10.3743 23.4146 10.3743C23.4537 10.3743 23.4537 10.3743 23.4927 10.3743C23.5317 10.3743 23.5317 10.3743 23.5707 10.3743C23.6098 10.3743 23.6098 10.3743 23.6488 10.3361C23.6878 10.3361 23.6878 10.2978 23.7268 10.2978L23.7659 10.2596L23.8049 10.2213L23.8439 10.1831L23.8829 10.1448C23.8829 10.0683 23.8829 10.0683 23.8829 10.0301ZM11.9805 2.8388C17.0146 2.8388 21.3463 5.47814 22.439 9.07377H1.52195C2.61463 5.43989 6.94634 2.8388 11.9805 2.8388ZM7.18049 21.123H4.44878V10.3743H7.18049V21.123ZM19.5902 21.123H16.8585V10.3743H19.5902V21.123Z"/>
    </symbol>

    <symbol id="expert-interior-design-icon" viewBox="0 0 24 24">
        <path d="M18.8017 15.0244C18.8017 13.8146 17.8102 12.839 16.5807 12.839H16.3031L17.2153 5.54146V5.50244C17.2946 4.05854 16.779 2.69268 15.7479 1.63902C14.7167 0.585366 13.3683 0 11.9009 0C10.4334 0 9.04533 0.585366 8.05382 1.63902C7.02266 2.69268 6.50708 4.05854 6.5864 5.50244V5.54146L7.49858 12.839H7.22096C5.9915 12.839 5 13.8146 5 15.0244V16.7024C5 17.2878 5.23796 17.8341 5.63456 18.2244V23.2976C5.63456 23.6878 5.95184 24 6.34844 24C6.74504 24 7.06232 23.6878 7.06232 23.2976V18.8878C7.14164 18.8878 7.22096 18.8878 7.26062 18.8878H8.92635V22.2049C8.92635 22.5951 9.24363 22.9073 9.64023 22.9073C10.0368 22.9073 10.3541 22.5951 10.3541 22.2049V18.8878H13.6459V22.2049C13.6459 22.5951 13.9632 22.9073 14.3598 22.9073C14.7564 22.9073 15.0737 22.5951 15.0737 22.2049V18.8878H16.7394C16.8187 18.8878 16.898 18.8878 16.9377 18.8878V23.2976C16.9377 23.6878 17.255 24 17.6516 24C18.0482 24 18.3654 23.6878 18.3654 23.2976V18.2634C18.762 17.8732 19 17.3268 19 16.7415V15.0244H18.8017ZM7.89518 5.38537C7.85552 4.33171 8.25212 3.31707 8.96601 2.53659C9.71955 1.7561 10.7507 1.32683 11.8215 1.32683C12.932 1.32683 13.9235 1.7561 14.6771 2.53659C15.4306 3.31707 15.8272 4.33171 15.7479 5.38537L14.8357 12.8H8.84703L7.89518 5.38537ZM7.1813 17.561C7.02266 17.561 6.86402 17.522 6.74504 17.4439C6.70538 17.4049 6.66572 17.4049 6.62606 17.3659C6.42776 17.2098 6.30878 16.9756 6.30878 16.7415V15.0634C6.30878 14.5951 6.70538 14.2439 7.14164 14.2439H8.1728H15.4703H16.5014C16.9773 14.2439 17.3343 14.6341 17.3343 15.0634V16.7415C17.3343 17.0146 17.2153 17.2098 17.017 17.3659C16.9773 17.4049 16.9377 17.4049 16.898 17.4439C16.779 17.522 16.6204 17.561 16.4618 17.561H7.1813Z"/>
    </symbol>

    <symbol id="beds-icon" viewBox="0 0 20 20">
        <path d="M18.6544 13.2792C18.6544 13.2792 18.6544 13.2468 18.6544 13.2792C18.6544 13.2468 18.6544 13.2468 18.6544 13.2468L15.9449 7.24026V1.98052C15.9449 0.909091 15.0842 0 14.0005 0H5.96767C4.91576 0 4.02322 0.876623 4.02322 1.98052V7.24026L1.31375 13.2468C1.28188 13.3117 1.25 13.4091 1.25 13.474V19.4156C1.25 19.7403 1.50501 20 1.82377 20C2.14253 20 2.39754 19.7403 2.39754 19.4156V17.6948H17.6025V19.4156C17.6025 19.7403 17.8575 20 18.1762 20C18.495 20 18.75 19.7403 18.75 19.4156V13.474C18.6862 13.4091 18.6862 13.3442 18.6544 13.2792ZM4.94763 7.92208H14.9886L17.2518 12.9221H2.7163L4.94763 7.92208ZM5.17076 1.98052C5.17076 1.52597 5.5214 1.13636 5.99954 1.13636H14.0005C14.4467 1.13636 14.8292 1.49351 14.8292 1.98052V6.78571H5.17076V1.98052ZM2.39754 16.5584V14.0584H17.6025V16.5584H2.39754Z"/>
    </symbol>

    <symbol id="bathrooms-icon" viewBox="0 0 20 20">
        <path d="M19.4156 9.10963H18.0519H3.83117V2.7787C3.83117 2.35004 4.15584 2.0203 4.57792 2.0203H7.07792V2.97654C6.3961 3.07546 5.84416 3.66898 5.84416 4.3944V5.84524C5.84416 6.17498 6.1039 6.43877 6.42857 6.43877H8.73377C9.05844 6.43877 9.31818 6.17498 9.31818 5.84524V4.3944C9.31818 3.73493 8.86364 3.17438 8.24675 3.00951V1.42678C8.24675 1.09704 7.98701 0.833252 7.66234 0.833252H4.57792C3.53896 0.833252 2.69481 1.69057 2.69481 2.74572V9.07666H2.17532H1.94805H0.584416C0.25974 9.07666 0 9.34045 0 9.67018C0 9.99992 0.25974 10.2637 0.584416 10.2637H1.36364V12.9016C1.36364 14.847 2.79221 16.4627 4.64286 16.7265L3.92857 18.3422C3.7987 18.639 3.92857 18.9687 4.22078 19.1006C4.28571 19.1336 4.38312 19.1666 4.44805 19.1666C4.67532 19.1666 4.87013 19.0347 4.96753 18.8368L5.87662 16.7925H14.8052C14.8701 16.7925 14.9351 16.7925 15.0325 16.7925L15.9416 18.8368C16.039 19.0677 16.2338 19.1666 16.461 19.1666C16.526 19.1666 16.6234 19.1666 16.6883 19.1006C16.9805 18.9687 17.1104 18.639 16.9805 18.3422L16.1688 16.5287C17.5974 15.9681 18.6364 14.5503 18.6364 12.9016V10.2637H19.4156C19.7403 10.2637 20 9.99992 20 9.67018C20 9.37342 19.7403 9.10963 19.4156 9.10963ZM8.14935 5.28469H6.98052V4.3944C6.98052 4.22953 7.11039 4.09764 7.27273 4.09764H7.85714C8.01948 4.09764 8.14935 4.22953 8.14935 4.3944V5.28469ZM17.5 12.9016C17.5 14.3854 16.2987 15.6384 14.8052 15.6384H5.19481C3.73377 15.6384 2.5 14.4184 2.5 12.9016V10.2637H17.5V12.9016Z"/>
    </symbol>

    <symbol id="rooms-icon" viewBox="0 0 20 20">
        <path d="M15.2201 0C16.216 0 17.0512 0.813008 17.0833 1.85366V18.1138C17.0833 19.1545 16.2481 20 15.2201 20H4.77985C3.75188 20 2.91666 19.1545 2.91666 18.1138V1.85366C2.91666 0.813008 3.75188 0 4.74772 0H15.2201ZM15.188 1.10569H4.74772C4.33011 1.10569 4.00887 1.46341 4.00887 1.85366V18.1138C4.00887 18.5366 4.36223 18.8618 4.74772 18.8618H15.188C15.6056 18.8618 15.9269 18.5041 15.9269 18.1138V1.85366C15.9269 1.43089 15.5735 1.10569 15.188 1.10569ZM13.4854 8.68293C14.0637 8.68293 14.5777 9.17073 14.5777 9.78862C14.5777 10.4065 14.0958 10.8943 13.4854 10.8943C12.8751 10.8943 12.3932 10.4065 12.3932 9.78862C12.3932 9.17073 12.8751 8.68293 13.4854 8.68293Z"/>
    </symbol>

    <symbol id="arrow1" viewBox="0 0 20 20">
        <path d="M19.4582 8.6708L15.8364 4.95373C15.3393 4.47189 14.5581 4.47189 14.061 4.8849C13.5639 5.36674 13.5639 6.12392 13.99 6.60576L16.0494 8.73963H1.27827C0.568121 8.73963 0 9.29031 0 9.97866C0 10.667 0.568121 11.2177 1.27827 11.2177H16.1204L14.061 13.3515C13.5639 13.8334 13.6349 14.5906 14.132 15.0724C14.3451 15.2789 14.7001 15.4166 14.9842 15.4166C15.3393 15.4166 15.6233 15.2789 15.9074 15.0724L19.5292 11.3553C20.1683 10.5293 20.1683 9.42798 19.4582 8.6708Z"/>
    </symbol>

    <symbol id="star" viewBox="0 0 18 18">
        <path d="M17.5927 6.48942L11.9726 5.62002L9.42655 0.279449C9.24025 -0.0931496 8.74346 -0.0931496 8.55716 0.279449L6.01107 5.65107L0.422094 6.48942C0.0184458 6.55152 -0.136803 7.07937 0.173695 7.35882L4.24123 11.5505L3.27868 17.419C3.21658 17.8226 3.62023 18.1642 3.99283 17.9158L9.05395 15.1523L14.084 17.9158C14.4256 18.1021 14.8603 17.7916 14.7671 17.419L13.8046 11.5505L17.8721 7.35882C18.1205 7.07937 17.9963 6.55152 17.5927 6.48942Z"/>
    </symbol>

    <symbol id="empty-star" viewBox="0 0 18 18">
        <path d="M17.9322 6.78C17.8122 6.42 17.5122 6.15 17.1522 6.09L12.1422 5.31L9.89215 0.57C9.71215 0.21 9.38215 0 8.99215 0C8.60215 0 8.27215 0.21 8.12215 0.57L5.87215 5.34L0.832151 6.15C0.472151 6.21 0.172151 6.48 0.0521506 6.84C-0.0678494 7.2 0.0221506 7.62 0.292151 7.89L3.92215 11.61L3.08215 16.8C3.02215 17.19 3.17215 17.58 3.50215 17.82C3.68215 17.94 3.86215 18 4.04215 18C4.19215 18 4.37215 17.97 4.49215 17.88L8.99215 15.42L13.4622 17.85C13.7922 18.03 14.1822 18 14.4822 17.79C14.8122 17.55 14.9622 17.16 14.9022 16.77L14.0622 11.55L17.6922 7.83C17.9622 7.56 18.0522 7.14 17.9322 6.78ZM17.2422 7.41L13.6422 11.13C13.5222 11.25 13.4622 11.46 13.4922 11.64L14.3322 16.86C14.3622 17.07 14.2722 17.22 14.1522 17.28C14.0922 17.31 13.9422 17.4 13.7622 17.31L9.26215 14.88C9.08215 14.79 8.90215 14.79 8.72215 14.88L4.22215 17.34C4.04215 17.43 3.89215 17.37 3.83215 17.31C3.74215 17.25 3.62215 17.07 3.65215 16.89L4.52215 11.7C4.55215 11.52 4.49215 11.31 4.37215 11.19L0.742151 7.47C0.592151 7.32 0.592151 7.14 0.622151 7.02C0.682151 6.87 0.772151 6.78 0.922151 6.75L5.96215 5.94C6.14215 5.91 6.32215 5.79 6.38215 5.61L8.63215 0.84C8.72215 0.69 8.84215 0.6 8.99215 0.6C9.14215 0.6 9.26215 0.69 9.32215 0.84L11.5722 5.61C11.6622 5.79 11.8122 5.91 11.9922 5.94L17.0022 6.72C17.1522 6.75 17.2722 6.84 17.3022 6.99C17.3922 7.08 17.3922 7.29 17.2422 7.41Z" fill="#52503B"/>
    </symbol>

    <symbol id="linkedin-logo" viewBox="0 0 24 24">
        <path d="M22.3224 0H1.75001C0.777784 0 0 0.774194 0 1.74194V22.2581C0 23.1871 0.777784 24 1.75001 24H22.2446C23.2168 24 23.9946 23.2258 23.9946 22.2581V1.70323C24.0724 0.774194 23.2946 0 22.3224 0ZM7.11672 20.4H3.57781V8.98065H7.11672V20.4ZM5.32782 7.39355C4.16114 7.39355 3.26669 6.46452 3.26669 5.34194C3.26669 4.21936 4.20003 3.29032 5.32782 3.29032C6.45561 3.29032 7.38895 4.21936 7.38895 5.34194C7.38895 6.46452 6.53338 7.39355 5.32782 7.39355ZM20.5335 20.4H16.9946V14.8645C16.9946 13.5484 16.9557 11.8065 15.1279 11.8065C13.2612 11.8065 12.989 13.2774 12.989 14.7484V20.4H9.45007V8.98065H12.9112V10.5677H12.9501C13.4557 9.63871 14.5834 8.70968 16.3335 8.70968C19.9502 8.70968 20.6113 11.0323 20.6113 14.2065V20.4H20.5335Z"/>
    </symbol>

    <symbol id="facebook-logo" viewBox="0 0 24 24">
        <path d="M22.6452 0H1.35484C0.580645 0 0 0.619355 0 1.35484V22.6452C0 23.4194 0.619355 24 1.35484 24H12.8129V14.671H9.71613V11.071H12.8129V8.4C12.8129 5.30323 14.671 3.6 17.4581 3.6C18.3871 3.6 19.3161 3.63871 20.2452 3.75484V6.96774H18.3871C16.9161 6.96774 16.6065 7.66452 16.6065 8.70968V10.9935H20.129L19.6258 14.6323H16.529V23.8452H22.6452C23.4194 23.8452 24 23.2645 24 22.4903V1.35484C23.9613 0.580645 23.3419 0 22.6452 0Z"/>
    </symbol>

    <symbol id="instagram-logo" viewBox="0 0 24 24">
        <path d="M13.8943 0.000976562C15.5417 0.0042081 16.0121 0.0180576 17.052 0.0774124C18.3697 0.116122 19.2223 0.30967 19.9974 0.619348C20.7725 0.929025 21.4313 1.31612 22.0902 1.97419C22.749 2.63225 23.1753 3.29032 23.4466 4.10322C23.7178 4.91612 23.9504 5.80644 23.9891 7.04515C24.0279 8.36128 23.9504 8.78709 23.9504 12.0774L23.9501 13.7333C23.95 13.8092 23.95 13.8828 23.9499 13.9541L23.9493 14.3562C23.9469 15.6766 23.9388 16.1264 23.9116 16.9935C23.8729 18.3097 23.6403 19.1613 23.3691 19.9355C23.0978 20.7097 22.6715 21.4064 22.0126 22.0645C21.3538 22.7226 20.695 23.1484 19.8811 23.4193C19.0673 23.6903 18.2534 23.9226 16.9358 23.9613C16.5844 23.9716 16.3019 23.9792 16.0141 23.9847L15.7961 23.9885C15.4272 23.9943 15.021 23.9971 14.4325 23.9986L14.0564 23.9993C13.9897 23.9993 13.9208 23.9994 13.8497 23.9995L10.3208 23.9994C8.50276 23.9969 8.06871 23.9845 7.01458 23.9226C5.69692 23.8839 4.84432 23.6516 4.06922 23.3806C3.29413 23.1097 2.59655 22.6839 1.93772 22.0258C1.27889 21.3677 0.852586 20.7097 0.581303 19.8968C0.31002 19.0839 0.0774924 18.271 0.0387377 16.9548C0.0309868 16.6916 0.024786 16.4671 0.0198254 16.25L0.0132759 15.926C0.00694596 15.5636 0.00363028 15.1783 0.0018935 14.6255L0.00102941 14.2725C0.000913147 14.21 0.000809802 14.1454 0.000717939 14.0788L0.000488281 11.38C0.00515033 8.65892 0.0413214 8.27354 0.0774924 7.04515C0.116247 5.72902 0.31002 4.87741 0.620058 4.10322C0.891341 3.29032 1.31764 2.63225 1.97647 1.97419C2.6353 1.31612 3.29413 0.851606 4.10798 0.580638C4.92183 0.30967 5.73568 0.0774124 7.05334 0.0387027C7.9757 0.011606 8.42331 0.00347692 9.73876 0.00103821L13.8943 0.000976562ZM14.0923 2.20718H10.0131C9.15961 2.20837 8.653 2.2115 8.19369 2.21972L7.98397 2.22389C7.74067 2.2292 7.49772 2.23612 7.20835 2.24515C6.00696 2.28386 5.38688 2.51612 4.96058 2.67096C4.41802 2.90322 4.03047 3.13548 3.60417 3.56128C3.21662 3.94838 2.94534 4.37419 2.71281 4.91612C2.55779 5.38064 2.32526 5.99999 2.28651 7.16128C2.27747 7.45032 2.27053 7.69298 2.26522 7.936L2.26105 8.14548C2.25345 8.56896 2.2502 9.0327 2.2488 9.77206L2.24806 10.3819C2.24801 10.4563 2.24797 10.5329 2.24793 10.612L2.24775 16.8C2.28651 18 2.51904 18.6193 2.67406 19.0452C2.94534 19.5871 3.17787 19.9742 3.60417 20.4C3.99172 20.8258 4.41802 21.0968 4.96058 21.329C5.42564 21.4839 6.04571 21.7161 7.20835 21.7548C8.06363 21.7815 8.53182 21.7898 9.78244 21.7924L10.402 21.7932C10.4776 21.7933 10.5555 21.7933 10.6361 21.7933L16.8583 21.7935C18.0597 21.7548 18.6797 21.5226 19.106 21.3677C19.6486 21.0968 20.0362 20.8645 20.4625 20.4387C20.8888 20.0516 21.16 19.6258 21.3926 19.0839C21.5476 18.6193 21.7801 18 21.8189 16.8387C21.8266 16.591 21.8344 16.3773 21.8418 16.1683L21.8491 15.9597C21.8755 15.1926 21.8964 14.3561 21.8964 12L21.8961 10.3819C21.896 10.3076 21.896 10.2356 21.8959 10.1658L21.8953 9.77206C21.8929 8.47819 21.8848 8.02838 21.8576 7.16128C21.8189 5.96128 21.5863 5.34193 21.4313 4.91612C21.16 4.37419 20.9275 3.98709 20.5012 3.56128C20.1137 3.17419 19.6874 2.90322 19.1448 2.67096C18.6797 2.51612 18.0597 2.28386 16.897 2.24515C16.6077 2.23612 16.3647 2.2292 16.1214 2.22389L15.9117 2.21972C15.4524 2.2115 14.9458 2.20837 14.0923 2.20718ZM12.0139 5.84515C15.4631 5.84515 18.2147 8.55483 18.2147 12C18.2147 15.4452 15.3856 18.1548 12.0139 18.1548C8.64228 18.1548 5.85194 15.4452 5.85194 12C5.85194 8.63225 8.56477 5.84515 12.0139 5.84515ZM12.0139 7.97419C9.80492 7.97419 7.98345 9.79354 7.98345 12C7.98345 14.2064 9.76616 16.0258 12.0139 16.0258C14.2617 16.0258 16.0444 14.2452 16.0444 12C16.0444 9.75483 14.2617 7.97419 12.0139 7.97419ZM18.486 4.14193C19.2779 4.14193 19.9199 4.78317 19.9199 5.57419C19.9199 6.3652 19.2779 7.00644 18.486 7.00644C17.694 7.00644 17.052 6.3652 17.052 5.57419C17.052 4.78317 17.694 4.14193 18.486 4.14193Z"/>
    </symbol>

    <symbol id="twitter-logo" viewBox="0 0 24 24">
        <path d="M7.47097 22.1645C16.6065 22.1645 21.5613 14.6161 21.5613 8.07419C21.5613 7.91936 21.5613 7.64839 21.5226 7.41613C22.4903 6.71936 23.3419 5.82903 24 4.86129C23.071 5.2871 22.1419 5.51935 21.1742 5.63548C22.2194 5.01613 22.9935 4.04839 23.3419 2.8871C22.3742 3.42903 21.3677 3.85484 20.1677 4.0871C19.2387 3.11935 18 2.5 16.5677 2.5C13.8194 2.5 11.5742 4.74516 11.5742 7.49355C11.5742 7.88065 11.6129 8.26774 11.6903 8.65484C7.70323 8.38387 4.06452 6.40968 1.5871 3.42903C1.16129 4.20323 0.929032 5.01613 0.929032 5.90645C0.929032 7.64839 1.81935 9.11935 3.17419 10.0097C2.36129 9.97097 1.5871 9.73871 0.929032 9.39032C0.929032 9.42903 0.929032 9.42903 0.929032 9.42903C0.929032 11.7903 2.63226 13.8419 4.87742 14.3065C4.45161 14.4226 3.9871 14.4613 3.63871 14.4613C3.32903 14.4613 2.98065 14.4226 2.70968 14.3452C3.36774 16.3194 5.1871 17.7516 7.35484 17.7903C5.65161 19.1065 3.52258 19.9194 1.23871 19.9194C0.774194 19.9968 0.387097 19.9194 0 19.8806C2.09032 21.3516 4.68387 22.1645 7.47097 22.1645Z"/>
    </symbol>

</svg>