<svg width="1572" height="153" viewBox="0 0 1572 153" fill="none" xmlns="http://www.w3.org/2000/svg">
<path d="M167.26 41.1V42.1H167.754L168.055 41.7073L167.26 41.1ZM196.52 2.81999L197.314 3.42727L198.543 1.81999H196.52V2.81999ZM29.54 112.16V111.16H29.0492L28.7489 111.548L29.54 112.16ZM0.28 150L-0.511083 149.388L-1.75735 151H0.28V150ZM65.18 60.56C59.9465 60.56 56.2833 59.8427 53.948 58.3521C51.7123 56.925 50.56 54.6985 50.56 51.22H48.56C48.56 55.2215 49.9377 58.165 52.872 60.0379C55.7067 61.8473 59.8535 62.56 65.18 62.56V60.56ZM50.56 51.22C50.56 47.7443 51.7093 45.5794 53.9351 44.206C56.2711 42.7647 59.9365 42.1 65.18 42.1V40.1C59.8635 40.1 55.7189 40.7553 52.8849 42.504C49.9407 44.3206 48.56 47.2157 48.56 51.22H50.56ZM65.18 42.1H167.26V40.1H65.18V42.1ZM168.055 41.7073L197.314 3.42727L195.726 2.21271L166.466 40.4927L168.055 41.7073ZM196.52 1.81999H68.7V3.81999H196.52V1.81999ZM68.7 1.81999C46.2598 1.81999 30.2171 6.34834 19.7666 14.5171C9.27312 22.7196 4.56 34.4797 4.56 48.58H6.56C6.56 34.9603 11.0869 23.8404 20.9984 16.0929C30.9529 8.31165 46.4802 3.81999 68.7 3.81999V1.81999ZM4.56 48.58C4.56 61.4753 9.00052 72.3428 18.3482 79.9626C27.6655 87.5576 41.7284 91.82 60.78 91.82V89.82C41.9916 89.82 28.4446 85.6124 19.6118 78.4124C10.8095 71.2371 6.56 60.9846 6.56 48.58H4.56ZM60.78 91.82H140.86V89.82H60.78V91.82ZM140.86 91.82C146.198 91.82 149.854 92.5912 152.158 94.127C154.369 95.6014 155.48 97.8838 155.48 101.38H157.48C157.48 97.3962 156.171 94.3986 153.267 92.463C150.456 90.5888 146.302 89.82 140.86 89.82V91.82ZM155.48 101.38C155.48 104.997 154.362 107.332 152.152 108.83C149.851 110.388 146.199 111.16 140.86 111.16V113.16C146.301 113.16 150.459 112.392 153.273 110.485C156.178 108.518 157.48 105.463 157.48 101.38H155.48ZM140.86 111.16H29.54V113.16H140.86V111.16ZM28.7489 111.548L-0.511083 149.388L1.07108 150.612L30.3311 112.772L28.7489 111.548ZM0.28 151H137.34V149H0.28V151ZM137.34 151C159.887 151 175.941 146.473 186.371 137.988C196.841 129.471 201.48 117.101 201.48 101.82H199.48C199.48 116.679 194.989 128.399 185.109 136.437C175.189 144.507 159.673 149 137.34 149V151ZM201.48 101.82C201.48 88.1285 196.523 77.7388 186.902 70.8134C177.336 63.9286 163.288 60.56 145.26 60.56V62.56C163.092 62.56 176.654 65.9014 185.733 72.4366C194.757 78.9312 199.48 88.6715 199.48 101.82H201.48ZM145.26 60.56H65.18V62.56H145.26V60.56ZM223.21 2.81999V1.81999H222.718L222.418 2.20984L223.21 2.81999ZM193.73 41.1L192.938 40.4898L191.698 42.1H193.73V41.1ZM262.81 41.1H263.81V40.1H262.81V41.1ZM262.81 150H261.81V151H262.81V150ZM308.35 150V151H309.35V150H308.35ZM308.35 41.1V40.1H307.35V41.1H308.35ZM360.93 41.1V42.1H361.423L361.723 41.7101L360.93 41.1ZM390.41 2.81999L391.203 3.43015L392.443 1.81999H390.41V2.81999ZM222.418 2.20984L192.938 40.4898L194.523 41.7101L224.003 3.43015L222.418 2.20984ZM193.73 42.1H262.81V40.1H193.73V42.1ZM261.81 41.1V150H263.81V41.1H261.81ZM262.81 151H308.35V149H262.81V151ZM309.35 150V41.1H307.35V150H309.35ZM308.35 42.1H360.93V40.1H308.35V42.1ZM361.723 41.7101L391.203 3.43015L389.618 2.20984L360.138 40.4898L361.723 41.7101ZM390.41 1.81999H223.21V3.81999H390.41V1.81999ZM591.186 150V151H593.093L592.009 149.432L591.186 150ZM499.226 16.9L498.403 17.4682L498.404 17.4684L499.226 16.9ZM440.706 16.9L439.894 16.3168L439.891 16.3216L440.706 16.9ZM346.326 150L345.511 149.422L344.391 151H346.326V150ZM400.226 150V151H400.744L401.043 150.577L400.226 150ZM469.306 52.32L470.134 51.7588L469.324 50.5636L468.49 51.7426L469.306 52.32ZM495.706 91.26L494.879 91.8212L494.882 91.8265L495.706 91.26ZM510.666 112.6L510.604 113.598L512.766 113.733L511.466 112L510.666 112.6ZM447.526 112.16V111.16H447.017L446.717 111.572L447.526 112.16ZM420.026 150L419.217 149.412L418.063 151H420.026V150ZM592.009 149.432L500.049 16.3316L498.404 17.4684L590.364 150.568L592.009 149.432ZM500.049 16.3318C493.551 6.92066 484.259 -0.600002 470.186 -0.600002V1.4C483.393 1.4 492.142 8.39933 498.403 17.4682L500.049 16.3318ZM470.186 -0.600002C455.44 -0.600002 446.155 7.59584 439.894 16.3168L441.519 17.4832C447.577 9.04414 456.333 1.4 470.186 1.4V-0.600002ZM439.891 16.3216L345.511 149.422L347.142 150.578L441.522 17.4784L439.891 16.3216ZM346.326 151H400.226V149H346.326V151ZM401.043 150.577L470.123 52.8974L468.49 51.7426L399.41 149.423L401.043 150.577ZM468.479 52.8811L494.879 91.8212L496.534 90.6988L470.134 51.7588L468.479 52.8811ZM494.882 91.8265C499.714 98.8552 505.89 107.899 509.866 113.2L511.466 112C507.522 106.741 501.378 97.7448 496.53 90.6935L494.882 91.8265ZM510.729 111.602C503.65 111.16 493.274 111.16 484.486 111.16V113.16C493.299 113.16 503.602 113.16 510.604 113.598L510.729 111.602ZM484.486 111.16H447.526V113.16H484.486V111.16ZM446.717 111.572L419.217 149.412L420.835 150.588L448.335 112.748L446.717 111.572ZM420.026 151H591.186V149H420.026V151ZM789.135 121.4L789.861 120.713L789.855 120.707L789.849 120.701L789.135 121.4ZM768.455 102.04L768.259 101.059L766.045 101.502L767.86 102.844L768.455 102.04ZM636.675 2.81999V1.81999H636.185L635.885 2.207L636.675 2.81999ZM606.975 41.1L606.185 40.487L604.933 42.1H606.975V41.1ZM606.975 74.76V73.76H605.975V74.76H606.975ZM606.975 150H605.975V151H606.975V150ZM652.515 150V151H653.515V150H652.515ZM652.515 111.06V110.06H651.515V111.06H652.515ZM722.475 111.06L723.24 110.416L722.94 110.06H722.475V111.06ZM755.255 150L754.49 150.644L754.789 151H755.255V150ZM816.195 150V151H818.518L816.921 149.313L816.195 150ZM789.849 120.701C779.737 110.369 774.183 105.031 769.049 101.236L767.86 102.844C772.846 106.529 778.292 111.751 788.42 122.099L789.849 120.701ZM768.651 103.021C793.333 98.0842 807.955 78.7416 807.955 55.4H805.955C805.955 77.8184 791.977 96.3158 768.259 101.059L768.651 103.021ZM807.955 55.4C807.955 33.9662 797.14 20.5098 782.127 12.4709C767.179 4.46743 748.071 1.81999 731.275 1.81999V3.81999C747.919 3.81999 766.65 6.45256 781.183 14.2341C795.649 21.9802 805.955 34.8138 805.955 55.4H807.955ZM731.275 1.81999H636.675V3.81999H731.275V1.81999ZM635.885 2.207L606.185 40.487L607.765 41.713L637.465 3.43299L635.885 2.207ZM606.975 42.1H735.015V40.1H606.975V42.1ZM735.015 42.1C742.728 42.1 748.773 43.5165 752.86 46.2237C756.888 48.8921 759.095 52.8637 759.095 58.26H761.095C761.095 52.2163 758.571 47.6079 753.964 44.5563C749.416 41.5435 742.921 40.1 735.015 40.1V42.1ZM759.095 58.26C759.095 62.9029 756.589 66.74 752.299 69.4605C747.989 72.1935 741.919 73.76 735.015 73.76V75.76C742.19 75.76 748.66 74.1365 753.37 71.1495C758.1 68.15 761.095 63.7371 761.095 58.26H759.095ZM735.015 73.76H606.975V75.76H735.015V73.76ZM605.975 74.76V150H607.975V74.76H605.975ZM606.975 151H652.515V149H606.975V151ZM653.515 150V111.06H651.515V150H653.515ZM652.515 112.06H722.475V110.06H652.515V112.06ZM721.71 111.704L754.49 150.644L756.02 149.356L723.24 110.416L721.71 111.704ZM755.255 151H816.195V149H755.255V151ZM816.921 149.313L789.861 120.713L788.408 122.087L815.468 150.687L816.921 149.313ZM910.671 16.02L909.793 16.4988L909.797 16.5058L909.801 16.5127L910.671 16.02ZM860.071 20.64L861.03 20.9223L861.031 20.9188L860.071 20.64ZM822.011 150L821.052 149.718L820.674 151H822.011V150ZM866.671 150V151H867.436L867.636 150.261L866.671 150ZM880.531 98.74L881.496 99.001L881.497 98.9977L880.531 98.74ZM890.431 58.26L891.337 57.8371L890.024 55.0233L889.448 58.0746L890.431 58.26ZM911.111 98.74L911.994 98.27L911.994 98.2699L911.111 98.74ZM930.911 135.92L931.794 135.451L931.794 135.45L930.911 135.92ZM983.271 135.92L982.389 135.448L982.387 135.451L983.271 135.92ZM1003.07 98.96L1003.95 99.4322L1003.95 99.4274L1003.07 98.96ZM1023.53 58.26L1024.51 58.0604L1023.91 55.0973L1022.63 57.8361L1023.53 58.26ZM1033.65 98.74L1034.62 98.479L1034.61 98.4737L1033.65 98.74ZM1047.51 150L1046.55 150.261L1046.75 151H1047.51V150ZM1092.83 150V151H1094.16L1093.79 149.724L1092.83 150ZM1055.65 20.64L1056.61 20.3638L1056.61 20.3612L1055.65 20.64ZM1005.05 16.02L1005.92 16.5107L1005.92 16.5074L1005.05 16.02ZM981.511 57.82L982.379 58.3171L982.382 58.3107L981.511 57.82ZM957.971 101.6L957.073 102.04L957.991 103.916L958.877 102.024L957.971 101.6ZM934.211 57.6L933.341 58.0927L933.343 58.097L934.211 57.6ZM911.549 15.5411C906.129 5.60498 897.906 -0.600002 885.811 -0.600002V1.4C897.036 1.4 904.653 7.075 909.793 16.4988L911.549 15.5411ZM885.811 -0.600002C873.934 -0.600002 863.197 6.28668 859.111 20.3612L861.031 20.9188C864.865 7.7133 874.808 1.4 885.811 1.4V-0.600002ZM859.112 20.3577L821.052 149.718L822.97 150.282L861.03 20.9223L859.112 20.3577ZM822.011 151H866.671V149H822.011V151ZM867.636 150.261L881.496 99.001L879.566 98.479L865.706 149.739L867.636 150.261ZM881.497 98.9977C885.894 82.5094 889.205 70.1497 891.414 58.4454L889.448 58.0746C887.257 69.6903 883.968 81.9706 879.565 98.4823L881.497 98.9977ZM889.525 58.6829C894.156 68.608 899.447 78.9674 910.228 99.2101L911.994 98.2699C901.215 78.0326 895.945 67.7119 891.337 57.8371L889.525 58.6829ZM910.228 99.21L930.028 136.39L931.794 135.45L911.994 98.27L910.228 99.21ZM930.027 136.389C933.928 143.743 937.84 148.053 942.282 150.492C946.717 152.927 951.547 153.42 957.091 153.42V151.42C951.635 151.42 947.224 150.923 943.245 148.738C939.272 146.557 935.594 142.617 931.794 135.451L930.027 136.389ZM957.091 153.42C962.635 153.42 967.464 152.927 971.9 150.492C976.342 148.053 980.254 143.743 984.154 136.389L982.387 135.451C978.588 142.617 974.91 146.557 970.937 148.738C966.957 150.923 962.547 151.42 957.091 151.42V153.42ZM984.152 136.392L1003.95 99.4322L1002.19 98.4878L982.389 135.448L984.152 136.392ZM1003.95 99.4274C1014.08 80.275 1019.59 69.0404 1024.44 58.6839L1022.63 57.8361C1017.79 68.1596 1012.3 79.365 1002.19 98.4926L1003.95 99.4274ZM1022.55 58.4596C1024.98 70.3747 1028.07 82.2819 1032.69 99.0063L1034.61 98.4737C1030 81.7581 1026.92 69.9053 1024.51 58.0604L1022.55 58.4596ZM1032.69 99.001L1046.55 150.261L1048.48 149.739L1034.62 98.479L1032.69 99.001ZM1047.51 151H1092.83V149H1047.51V151ZM1093.79 149.724L1056.61 20.3638L1054.69 20.9162L1091.87 150.276L1093.79 149.724ZM1056.61 20.3612C1052.53 6.29609 1042.02 -0.600002 1030.13 -0.600002V1.4C1041.12 1.4 1050.85 7.7039 1054.69 20.9188L1056.61 20.3612ZM1030.13 -0.600002C1017.81 -0.600002 1009.59 5.83016 1004.18 15.5326L1005.92 16.5074C1011.07 7.28983 1018.69 1.4 1030.13 1.4V-0.600002ZM1004.18 15.5293L980.64 57.3293L982.382 58.3107L1005.92 16.5107L1004.18 15.5293ZM980.643 57.3229C967.66 79.989 961.923 90.7977 957.065 101.176L958.877 102.024C963.699 91.7223 969.402 80.971 982.379 58.317L980.643 57.3229ZM958.869 101.16C953.797 90.7961 948.066 79.7764 935.079 57.103L933.343 58.097C946.316 80.7436 952.025 91.7239 957.073 102.04L958.869 101.16ZM935.081 57.1073L911.541 15.5273L909.801 16.5127L933.341 58.0927L935.081 57.1073ZM1342.92 150V151H1344.83L1343.75 149.432L1342.92 150ZM1250.96 16.9L1250.14 17.4682L1250.14 17.4684L1250.96 16.9ZM1192.44 16.9L1191.63 16.3168L1191.63 16.3216L1192.44 16.9ZM1098.06 150L1097.25 149.422L1096.13 151H1098.06V150ZM1151.96 150V151H1152.48L1152.78 150.577L1151.96 150ZM1221.04 52.32L1221.87 51.7588L1221.06 50.5636L1220.23 51.7426L1221.04 52.32ZM1247.44 91.26L1246.62 91.8212L1246.62 91.8265L1247.44 91.26ZM1262.4 112.6L1262.34 113.598L1264.5 113.733L1263.2 112L1262.4 112.6ZM1199.26 112.16V111.16H1198.76L1198.46 111.572L1199.26 112.16ZM1171.76 150L1170.96 149.412L1169.8 151H1171.76V150ZM1343.75 149.432L1251.79 16.3316L1250.14 17.4684L1342.1 150.568L1343.75 149.432ZM1251.79 16.3318C1245.29 6.92066 1236 -0.600002 1221.92 -0.600002V1.4C1235.13 1.4 1243.88 8.39933 1250.14 17.4682L1251.79 16.3318ZM1221.92 -0.600002C1207.18 -0.600002 1197.89 7.59584 1191.63 16.3168L1193.26 17.4832C1199.32 9.04414 1208.07 1.4 1221.92 1.4V-0.600002ZM1191.63 16.3216L1097.25 149.422L1098.88 150.578L1193.26 17.4784L1191.63 16.3216ZM1098.06 151H1151.96V149H1098.06V151ZM1152.78 150.577L1221.86 52.8974L1220.23 51.7426L1151.15 149.423L1152.78 150.577ZM1220.22 52.8811L1246.62 91.8212L1248.27 90.6988L1221.87 51.7588L1220.22 52.8811ZM1246.62 91.8265C1251.45 98.8552 1257.63 107.899 1261.6 113.2L1263.2 112C1259.26 106.741 1253.12 97.7448 1248.27 90.6935L1246.62 91.8265ZM1262.47 111.602C1255.39 111.16 1245.01 111.16 1236.22 111.16V113.16C1245.04 113.16 1255.34 113.16 1262.34 113.598L1262.47 111.602ZM1236.22 111.16H1199.26V113.16H1236.22V111.16ZM1198.46 111.572L1170.96 149.412L1172.57 150.588L1200.07 112.748L1198.46 111.572ZM1171.76 151H1342.92V149H1171.76V151ZM1509.19 2.81999V1.81999H1508.79L1508.5 2.10128L1509.19 2.81999ZM1461.89 48.58L1461.19 49.2954L1461.89 49.9745L1462.59 49.2987L1461.89 48.58ZM1415.03 2.81999L1415.73 2.10454L1415.44 1.81999H1415.03V2.81999ZM1351.89 2.81999V1.81999H1349.36L1351.21 3.54986L1351.89 2.81999ZM1396.99 45.06L1396.31 45.7899L1396.31 45.791L1396.99 45.06ZM1431.31 75.64L1431.92 76.4362L1432.99 75.6183L1431.9 74.8285L1431.31 75.64ZM1396.99 105.78L1396.32 105.045L1396.32 105.045L1396.99 105.78ZM1349.03 150L1348.36 149.265L1346.47 151H1349.03V150ZM1405.57 150V151H1405.97L1406.26 150.728L1405.57 150ZM1457.27 101.38L1457.97 100.662L1457.28 99.9974L1456.59 100.652L1457.27 101.38ZM1507.43 150L1506.74 150.718L1507.03 151H1507.43V150ZM1571.67 150V151H1574.2L1572.36 149.271L1571.67 150ZM1524.59 105.78L1525.28 105.051L1525.28 105.05L1524.59 105.78ZM1488.95 73.88L1488.35 73.0838L1487.23 73.9333L1488.4 74.7121L1488.95 73.88ZM1521.73 45.28L1522.4 46.0221L1522.41 46.0179L1521.73 45.28ZM1568.15 2.81999L1568.83 3.55787L1570.73 1.81999H1568.15V2.81999ZM1508.5 2.10128L1461.2 47.8613L1462.59 49.2987L1509.89 3.5387L1508.5 2.10128ZM1462.59 47.8645L1415.73 2.10454L1414.33 3.53545L1461.19 49.2954L1462.59 47.8645ZM1415.03 1.81999H1351.89V3.81999H1415.03V1.81999ZM1351.21 3.54986L1396.31 45.7899L1397.68 44.3301L1352.58 2.09012L1351.21 3.54986ZM1396.31 45.791C1419.39 67.3322 1425.16 72.4455 1430.73 76.4515L1431.9 74.8285C1426.46 70.9145 1420.8 65.9078 1397.68 44.3289L1396.31 45.791ZM1430.71 74.8438C1425.17 79.0552 1418.76 84.3638 1396.32 105.045L1397.67 106.515C1420.11 85.8362 1426.46 80.5848 1431.92 76.4362L1430.71 74.8438ZM1396.32 105.045L1348.36 149.265L1349.71 150.735L1397.67 106.515L1396.32 105.045ZM1349.03 151H1405.57V149H1349.03V151ZM1406.26 150.728L1457.96 102.108L1456.59 100.652L1404.89 149.272L1406.26 150.728ZM1456.58 102.098L1506.74 150.718L1508.13 149.282L1457.97 100.662L1456.58 102.098ZM1507.43 151H1571.67V149H1507.43V151ZM1572.36 149.271L1525.28 105.051L1523.91 106.509L1570.99 150.729L1572.36 149.271ZM1525.28 105.05C1501.56 82.8726 1494.88 76.6271 1489.51 73.0479L1488.4 74.7121C1493.59 78.1729 1500.1 84.2474 1523.91 106.51L1525.28 105.05ZM1489.56 74.6762C1495.1 70.4648 1501.95 64.492 1522.4 46.0221L1521.06 44.5379C1500.59 63.0279 1493.81 68.9352 1488.35 73.0838L1489.56 74.6762ZM1522.41 46.0179L1568.83 3.55787L1567.48 2.08212L1521.06 44.5421L1522.41 46.0179ZM1568.15 1.81999H1509.19V3.81999H1568.15V1.81999Z" fill="white" fill-opacity="0.03"/>
</svg>
